<mxfile host="Electron" modified="2024-03-09T19:19:48.375Z" agent="Mozilla/5.0 (X11; Linux x86_64) AppleWebKit/537.36 (KHTML, like Gecko) draw.io/23.1.5 Chrome/120.0.6099.291 Electron/28.2.5 Safari/537.36" etag="k6619A8oNeAu6PE3J2Zs" version="23.1.5" type="device">
  <diagram name="Strona-1" id="OV4mZrAFO6_xKFco6DVv">
    <mxGraphModel dx="4309" dy="3178" grid="1" gridSize="10" guides="1" tooltips="1" connect="1" arrows="1" fold="1" page="1" pageScale="1" pageWidth="827" pageHeight="1169" math="0" shadow="0">
      <root>
        <mxCell id="0" />
        <mxCell id="1" parent="0" />
        <mxCell id="Mt6CTlnOpknhvCUXhLSx-1" style="edgeStyle=orthogonalEdgeStyle;rounded=0;orthogonalLoop=1;jettySize=auto;html=1;" parent="1" source="Mt6CTlnOpknhvCUXhLSx-2" edge="1">
          <mxGeometry relative="1" as="geometry">
            <mxPoint x="-2375" y="-2170" as="targetPoint" />
          </mxGeometry>
        </mxCell>
        <mxCell id="Mt6CTlnOpknhvCUXhLSx-2" value="App started" style="shape=note2;boundedLbl=1;whiteSpace=wrap;html=1;size=25;verticalAlign=top;align=center;" parent="1" vertex="1">
          <mxGeometry x="-2680" y="-2200" width="120" height="60" as="geometry" />
        </mxCell>
        <mxCell id="Mt6CTlnOpknhvCUXhLSx-3" value="" style="ellipse;" parent="1" vertex="1">
          <mxGeometry x="-2375" y="-2185" width="30" height="30" as="geometry" />
        </mxCell>
        <mxCell id="OxrQrpIrmFskUuW2lVji-1" style="edgeStyle=orthogonalEdgeStyle;rounded=0;orthogonalLoop=1;jettySize=auto;html=1;" edge="1" parent="1" source="Mt6CTlnOpknhvCUXhLSx-7" target="Mt6CTlnOpknhvCUXhLSx-12">
          <mxGeometry relative="1" as="geometry" />
        </mxCell>
        <mxCell id="Mt6CTlnOpknhvCUXhLSx-7" value="Start app" style="html=1;dashed=0;rounded=1;absoluteArcSize=1;arcSize=20;verticalAlign=middle;align=center;whiteSpace=wrap;" parent="1" vertex="1">
          <mxGeometry x="-2450" y="-1980" width="180" height="50" as="geometry" />
        </mxCell>
        <mxCell id="OxrQrpIrmFskUuW2lVji-2" style="edgeStyle=orthogonalEdgeStyle;rounded=0;orthogonalLoop=1;jettySize=auto;html=1;entryX=0.5;entryY=0;entryDx=0;entryDy=0;" edge="1" parent="1" source="Mt6CTlnOpknhvCUXhLSx-12" target="Mt6CTlnOpknhvCUXhLSx-44">
          <mxGeometry relative="1" as="geometry" />
        </mxCell>
        <mxCell id="Mt6CTlnOpknhvCUXhLSx-12" value="Start rabbit" style="rounded=1;whiteSpace=wrap;html=1;fontSize=12;glass=0;strokeWidth=1;shadow=0;" parent="1" vertex="1">
          <mxGeometry x="-2447.5" y="-1855" width="175" height="70" as="geometry" />
        </mxCell>
        <mxCell id="Mt6CTlnOpknhvCUXhLSx-41" style="edgeStyle=orthogonalEdgeStyle;rounded=0;orthogonalLoop=1;jettySize=auto;html=1;entryX=0.5;entryY=0;entryDx=0;entryDy=0;" parent="1" source="Mt6CTlnOpknhvCUXhLSx-42" target="Mt6CTlnOpknhvCUXhLSx-7" edge="1">
          <mxGeometry relative="1" as="geometry" />
        </mxCell>
        <mxCell id="Mt6CTlnOpknhvCUXhLSx-42" value="Run migrations&amp;nbsp;" style="html=1;dashed=0;rounded=1;absoluteArcSize=1;arcSize=20;verticalAlign=middle;align=center;whiteSpace=wrap;" parent="1" vertex="1">
          <mxGeometry x="-2450" y="-2090" width="180" height="50" as="geometry" />
        </mxCell>
        <mxCell id="Mt6CTlnOpknhvCUXhLSx-43" style="edgeStyle=orthogonalEdgeStyle;rounded=0;orthogonalLoop=1;jettySize=auto;html=1;entryX=0.501;entryY=-0.016;entryDx=0;entryDy=0;entryPerimeter=0;" parent="1" source="Mt6CTlnOpknhvCUXhLSx-3" target="Mt6CTlnOpknhvCUXhLSx-42" edge="1">
          <mxGeometry relative="1" as="geometry" />
        </mxCell>
        <mxCell id="Mt6CTlnOpknhvCUXhLSx-44" value="Wait for user input" style="rounded=1;whiteSpace=wrap;html=1;fontSize=12;glass=0;strokeWidth=1;shadow=0;" parent="1" vertex="1">
          <mxGeometry x="-2447.5" y="-1710" width="175" height="70" as="geometry" />
        </mxCell>
      </root>
    </mxGraphModel>
  </diagram>
</mxfile>
